<?xml version="1.0" encoding="UTF-8" standalone="no"?>
<svg
   width="832"
   height="125"
   viewBox="0 0 832 125"
   fill="none"
   version="1.1"
   id="svg12"
   sodipodi:docname="6423f0ad0eddfe28cfd1e1bb_studentpulse logo yellow.svg"
   inkscape:version="1.4.2 (f4327f4, 2025-05-13)"
   xmlns:inkscape="http://www.inkscape.org/namespaces/inkscape"
   xmlns:sodipodi="http://sodipodi.sourceforge.net/DTD/sodipodi-0.dtd"
   xmlns="http://www.w3.org/2000/svg"
   xmlns:svg="http://www.w3.org/2000/svg">
  <sodipodi:namedview
     id="namedview12"
     pagecolor="#ffffff"
     bordercolor="#000000"
     borderopacity="0.25"
     inkscape:showpageshadow="2"
     inkscape:pageopacity="0.0"
     inkscape:pagecheckerboard="0"
     inkscape:deskcolor="#d1d1d1"
     inkscape:zoom="0.57027482"
     inkscape:cx="234.09766"
     inkscape:cy="87.677026"
     inkscape:window-width="1440"
     inkscape:window-height="830"
     inkscape:window-x="-6"
     inkscape:window-y="-6"
     inkscape:window-maximized="1"
     inkscape:current-layer="svg12" />
  <g
     clip-path="url(#clip0_985_15922)"
     id="g12"
     transform="translate(-222.59327,240.44779)"
     style="fill:#28170b">
    <path
       d="m 611.776,85.8338 c -7.774,0 -15.325,-1.5239 -22.434,-4.5337 -6.861,-2.9047 -13.024,-7.0595 -18.316,-12.3552 -5.287,-5.2915 -9.444,-11.4586 -12.346,-18.3286 l 17.436,-7.3795 c 1.948,4.6095 4.741,8.7518 8.296,12.3131 3.555,3.5571 7.694,6.3523 12.304,8.3013 4.767,2.0164 9.831,3.0394 15.06,3.0394 5.229,0 10.294,-1.023 15.06,-3.0394 4.607,-1.949 8.746,-4.7442 12.305,-8.3013 3.559,-3.5613 6.348,-7.7036 8.295,-12.3131 l 17.437,7.3795 c -2.903,6.8658 -7.055,13.0329 -12.347,18.3286 -5.287,5.2914 -11.45,9.4505 -18.315,12.3552 -7.11,3.0098 -14.657,4.5337 -22.435,4.5337 z"
       fill="#edd237"
       id="path1"
       style="fill:#ffd42a" />
    <path
       d="M 28.2983,99.7255 C 14.6224,99.7255 5.10269,94.6067 0,84.512 l 16.3934,-9.3369 c 1.9729,5.0473 6.0744,7.7078 11.9049,7.7078 5.3172,0 8.0095,-1.6459 8.0095,-4.8916 0,-3.2456 -5.5823,-4.9504 -12.3256,-6.6385 C 13.5665,68.4818 2.91102,63.8134 2.91102,50.9531 c 0,-6.828 2.40201,-12.0311 7.34068,-15.9081 4.947,-3.7761 11.2065,-5.6956 18.5935,-5.6956 10.8448,0 20.1036,4.9462 25.5218,13.6012 l -16.1662,8.7223 c -2.2926,-3.8139 -5.435,-5.7461 -9.3556,-5.7461 -4.232,0 -6.3816,1.507 -6.3816,4.4832 0,3.2961 5.7043,4.8453 12.3172,6.6344 l 0.0336,0.0084 c 14.2649,3.1067 21.1554,9.9978 21.0502,21.069 0,7.0764 -2.646,12.511 -7.858,16.1607 -5.3509,3.6119 -11.9807,5.4472 -19.7041,5.4472 z"
       fill="#edd237"
       id="path2"
       style="fill:#28170b" />
    <path
       d="m 95.7902,98.3617 c -7.7866,0 -13.5455,-1.3681 -17.1086,-4.0665 -4.8419,-3.797 -7.2018,-10.3767 -7.2018,-20.1093 V 49.4587 H 60.6182 V 31.2522 H 71.4798 V 18.1729 L 90.4897,12.4647 V 31.2522 H 104.473 V 49.4587 H 90.4897 v 24.7272 c 0,5.523 4.1647,6.6554 10.4153,6.6554 1.044,0 2.222,-0.0294 3.568,-0.0968 v 17.1499 c -3.126,0.3115 -6.0453,0.4673 -8.6871,0.4673 z"
       fill="#edd237"
       id="path3"
       style="fill:#28170b" />
    <path
       d="m 141.041,99.7256 c -7.058,0 -13.015,-2.4458 -17.71,-7.2658 C 118.62,87.4757 116.327,80.875 116.327,72.279 V 31.2522 h 19.01 v 38.0464 c 0,8.0488 4.787,13.0456 12.49,13.0456 8.455,0 13.305,-5.3504 13.305,-14.6747 V 31.2522 h 19.01 v 66.5749 h -19.01 v -7.7836 l -1.224,1.6797 c -3.887,5.3167 -10.235,8.0108 -18.867,8.0108 z"
       fill="#edd237"
       id="path4"
       style="fill:#28170b" />
    <path
       d="m 221.78,99.7256 c -8.842,0 -16.183,-3.3046 -22.447,-10.1073 -6.188,-6.7185 -9.326,-15.1545 -9.326,-25.0808 0,-9.9262 3.05,-18.135 9.326,-24.9461 6.348,-6.8911 13.689,-10.2462 22.447,-10.2462 8.758,0 15.157,2.7068 19.717,8.0488 l 1.194,1.3976 V 4.07495 h 19.01 V 97.8271 h -19.01 v -7.5479 l -1.194,1.3976 c -4.556,5.342 -11.19,8.0488 -19.717,8.0488 z m 4.072,-52.4517 c -4.964,0 -9.053,1.5744 -12.157,4.6853 -3.105,3.1067 -4.682,7.3373 -4.682,12.5699 0,5.2325 1.573,9.4674 4.682,12.5699 3.104,3.1067 7.197,4.6853 12.157,4.6853 4.96,0 9.053,-1.5744 12.157,-4.6853 3.105,-3.1067 4.682,-7.3374 4.682,-12.5699 0,-5.2326 -1.573,-9.4674 -4.682,-12.5699 -3.104,-3.1067 -7.197,-4.6853 -12.157,-4.6853 z"
       fill="#edd237"
       id="path5"
       style="fill:#28170b" />
    <path
       d="m 308.492,99.7257 c -11.278,0 -20.095,-3.2709 -26.952,-9.9979 -6.621,-6.6217 -9.978,-15.104 -9.978,-25.1944 0,-10.0905 3.315,-18.3918 9.852,-25.0682 6.583,-6.7144 15.186,-10.1241 25.585,-10.1241 9.801,0 17.68,3.3087 24.079,10.1114 6.457,6.5923 9.73,15.0283 9.73,25.0766 0,2.5974 -0.232,5.1063 -0.694,7.4721 h -48.613 l 0.329,0.9093 c 2.389,6.6091 8.085,9.9599 16.931,9.9599 5.482,0 9.907,-1.6796 13.159,-4.9884 l 15.178,8.7349 C 330.64,95.314 321.02,99.7172 308.492,99.7172 Z m -1.628,-53.6683 c -8.148,0 -13.348,3.776 -15.451,11.227 l -0.244,0.863 h 30.986 l -0.244,-0.863 c -2.107,-7.4468 -7.168,-11.227 -15.043,-11.227 z"
       fill="#edd237"
       id="path6"
       style="fill:#28170b" />
    <path
       d="M 395.045,97.8271 V 59.7807 c 0,-8.0488 -4.788,-13.0456 -12.49,-13.0456 -8.455,0 -13.306,5.3504 -13.306,14.6747 v 36.4131 h -19.01 V 31.2522 h 19.01 v 7.7835 l 1.224,-1.6796 c 3.887,-5.3167 10.235,-8.0109 18.867,-8.0109 7.101,0 13.012,2.4416 17.567,7.2574 4.809,4.9505 7.143,11.5511 7.143,20.1892 v 41.0353 z"
       fill="#edd237"
       id="path7"
       style="fill:#28170b" />
    <path
       d="m 457.118,98.3617 c -7.787,0 -13.546,-1.3681 -17.109,-4.0665 -4.841,-3.797 -7.197,-10.3767 -7.197,-20.1093 V 49.4587 H 421.95 V 31.2522 h 10.862 V 18.1729 l 19.01,-5.7082 v 18.7875 h 13.983 v 18.2065 h -13.983 v 24.7272 c 0,5.523 4.164,6.6554 10.415,6.6554 1.048,0 2.222,-0.0294 3.568,-0.0968 v 17.1499 c -3.126,0.3115 -6.045,0.4673 -8.687,0.4673 z"
       fill="#edd237"
       id="path8"
       style="fill:#28170b" />
    <path
       d="M 479.716,125 V 31.2522 H 498.73 V 38.8 l 1.191,-1.3976 c 4.556,-5.3378 11.19,-8.0488 19.717,-8.0488 8.527,0 16.099,3.3509 22.446,10.2462 6.273,6.8154 9.322,14.9736 9.322,24.9461 0,9.9726 -3.138,18.3623 -9.322,25.0809 -6.263,6.7985 -13.608,10.1072 -22.446,10.1072 -8.839,0 -15.157,-2.7068 -19.717,-8.0487 l -1.191,-1.3976 v 34.7203 h -19.014 z m 35.85,-77.7177 c -4.889,0 -8.864,1.5281 -12.145,4.6685 -3.117,3.1193 -4.691,7.3458 -4.691,12.5825 0,5.2368 1.574,9.4674 4.682,12.5699 3.294,3.1572 7.27,4.6853 12.158,4.6853 4.888,0 8.872,-1.5323 12.018,-4.6853 3.189,-3.052 4.817,-7.2911 4.817,-12.5699 0,-5.2788 -1.62,-9.5179 -4.825,-12.5825 -3.138,-3.1404 -7.076,-4.6685 -12.01,-4.6685 z"
       fill="#edd237"
       id="path9"
       style="fill:#28170b" />
    <path
       d="m 691.447,0 h -19.015 v 97.827 h 19.015 z"
       fill="#edd237"
       id="path10"
       style="fill:#28170b" />
    <path
       d="m 729.058,99.7255 c -13.68,0 -23.195,-5.1188 -28.302,-15.2135 l 16.398,-9.3369 c 1.968,5.0473 6.07,7.7078 11.904,7.7078 5.313,0 8.01,-1.6459 8.01,-4.8916 0,-3.2456 -5.587,-4.9504 -12.33,-6.6385 -10.411,-2.871 -21.071,-7.5394 -21.071,-20.3997 0,-6.828 2.402,-12.0311 7.345,-15.9081 4.951,-3.7761 11.206,-5.6956 18.593,-5.6956 10.845,0 20.104,4.9462 25.522,13.6012 l -16.166,8.7223 c -2.293,-3.8139 -5.439,-5.7461 -9.356,-5.7461 -4.232,0 -6.385,1.507 -6.385,4.4832 0,3.2961 5.708,4.8453 12.312,6.6344 l 0.034,0.0084 c 14.269,3.1067 21.155,9.9978 21.054,21.069 0,7.0764 -2.646,12.511 -7.853,16.1607 -5.351,3.6119 -11.981,5.4472 -19.709,5.4472 z"
       fill="#edd237"
       id="path11"
       style="fill:#28170b" />
    <path
       d="m 799.684,99.7255 c -11.278,0 -20.091,-3.2708 -26.948,-9.9978 -6.621,-6.6217 -9.978,-15.104 -9.978,-25.1945 0,-10.0904 3.315,-18.3917 9.852,-25.0682 6.584,-6.7143 15.186,-10.1241 25.585,-10.1241 9.802,0 17.681,3.3088 24.079,10.1115 6.457,6.5923 9.73,15.0283 9.73,25.0766 0,2.5974 -0.231,5.1063 -0.69,7.4721 h -48.612 l 0.328,0.9093 c 2.389,6.609 8.081,9.9599 16.932,9.9599 5.481,0 9.907,-1.6797 13.158,-4.9884 l 15.178,8.7349 c -6.457,8.6971 -16.078,13.1003 -28.605,13.1003 h -0.005 z m -1.628,-53.6682 c -8.148,0 -13.347,3.776 -15.451,11.227 l -0.244,0.863 h 30.991 l -0.244,-0.863 C 811,49.8375 805.935,46.0573 798.06,46.0573 Z"
       fill="#edd237"
       id="path12"
       style="fill:#28170b" />
  </g>
  <defs
     id="defs12">
    <clipPath
       id="clip0_985_15922">
      <rect
         width="832"
         height="125"
         fill="white"
         id="rect12" />
    </clipPath>
  </defs>
</svg>
